<svg width="41" height="45" viewBox="0 0 41 45" fill="none" xmlns="http://www.w3.org/2000/svg">
<path d="M16.5945 0.327999C21.2878 0.327999 25.4052 1.24533 28.9465 3.08C32.5305 4.91466 35.2825 7.53866 37.2025 10.952C39.1652 14.3227 40.1465 18.248 40.1465 22.728C40.1465 27.208 39.1652 31.1333 37.2025 34.504C35.2825 37.832 32.5305 40.4133 28.9465 42.248C25.4052 44.0827 21.2878 45 16.5945 45H0.9785V0.327999H16.5945ZM16.2745 37.384C20.9678 37.384 24.5945 36.104 27.1545 33.544C29.7145 30.984 30.9945 27.3787 30.9945 22.728C30.9945 18.0773 29.7145 14.4507 27.1545 11.848C24.5945 9.20266 20.9678 7.88 16.2745 7.88H9.9385V37.384H16.2745Z" fill="#F79541"/>
</svg>
